PathFileType	4	(X/Y/Z)	N:\Shared_Data\Ergonomics\New Model Testing\10-03-21\Test Cal 01.trc																																																																																																																																																													
DataRate	CameraRate	NumFrames	NumMarkers	Units	OrigDataRate	OrigDataStartFrame	OrigNumFrames	
100	100	5	59	mm	100	1427	148
Frame#	Time	R_Knee_Med			R_Knee_Lat			R_Thigh_Upper			R_Thigh_Front			R_Thigh_Rear			L_Knee_Med			L_Knee_Lat			L_Thigh_Upper			L_Thigh_Front			L_Thigh_Rear			R_Ankle_Med			R_Ankle_Lat			R_Shank_Upper			R_Shank_Front			R_Shank_Rear			L_Ankle_Med			L_Ankle_Lat			L_Shank_Upper			L_Shank_Front			L_Shank_Rear			R_Heel			R_MTP1			R_MTP5			L_Heel			L_MTP1			L_MTP5			V_Sacral			R_Pelvis			R_ASIS			L_ASIS			L_Pelvis			Clavicle			Chest			R_Acromium			L_Acromium			R_Elbow			R_Arm_Parallel			R_Arm_Adjacent			L_Elbow			L_Arm_Parallel			L_Arm_Adjacent			R_Forearm2			R_Forearm1			R_Forearm_Base			L_Forearm2			L_Forearm1			L_Forearm_Base			R_Hand_Lower			R_Hand_Med			R_Hand_Lat			L_Hand_Lower			L_Hand_Med			L_Hand_Lat			LAJC			RAJC			LHJC			RHJC			LKJC			RKJC			
		X1	Y1	Z1	X2	Y2	Z2	X3	Y3	Z3	X4	Y4	Z4	X5	Y5	Z5	X6	Y6	Z6	X7	Y7	Z7	X8	Y8	Z8	X9	Y9	Z9	X10	Y10	Z10	X11	Y11	Z11	X12	Y12	Z12	X13	Y13	Z13	X14	Y14	Z14	X15	Y15	Z15	X16	Y16	Z16	X17	Y17	Z17	X18	Y18	Z18	X19	Y19	Z19	X20	Y20	Z20	X21	Y21	Z21	X22	Y22	Z22	X23	Y23	Z23	X24	Y24	Z24	X25	Y25	Z25	X26	Y26	Z26	X27	Y27	Z27	X28	Y28	Z28	X29	Y29	Z29	X30	Y30	Z30	X31	Y31	Z31	X32	Y32	Z32	X33	Y33	Z33	X34	Y34	Z34	X35	Y35	Z35	X36	Y36	Z36	X37	Y37	Z37	X38	Y38	Z38	X39	Y39	Z39	X40	Y40	Z40	X41	Y41	Z41	X42	Y42	Z42	X43	Y43	Z43	X44	Y44	Z44	X45	Y45	Z45	X46	Y46	Z46	X47	Y47	Z47	X48	Y48	Z48	X49	Y49	Z49	X50	Y50	Z50	X51	Y51	Z51	X52	Y52	Z52	X53	Y53	Z53	X54	Y54	Z54	X55	Y55	Z55	X56	Y56	Z56	X57	Y57	Z57	X58	Y58	Z58	X59	Y59	Z59	

1427	14.26	-27.013662	498.43033	13.701328	-38.650002	492.48193	148.21356	59.608589	704.47681	128.38623	48.416882	593.5119	73.070572	14.573269	592.42017	139.04442	-25.035221	501.02145	-62.715649	-76.697594	521.13312	-191.49596	27.410034	720.07812	-181.5128	32.004032	610.34979	-132.5182	-22.208847	605.51959	-191.46611	-67.585976	96.16523	51.245064	-109.36563	79.247017	146.13611	-6.0064478	359.16931	110.83081	-32.745102	243.98485	83.196831	-45.662395	246.62822	145.21396	-82.161301	103.44035	-122.85607	-137.23917	73.555534	-203.15274	-42.614567	344.77017	-182.82742	-53.103619	230.18423	-148.09581	-96.151772	246.49252	-206.32199	-158.04327	52.20924	85.023514	60.770439	46.525742	94.891983	18.060083	26.534822	170.06093	-168.05751	56.713913	-152.58983	24.918152	58.18647	-154.10422	-2.9162815	19.633411	-231.10919	-197.79251	995.28632	-15.669845	-14.483293	1026.312	187.60078	42.426689	994.54962	124.3625	25.22398	984.75842	-141.40784	-48.25536	1020.967	-212.09073	59.933315	1534.7592	-20.643625	64.466179	1341.0079	-19.838472	-36.958038	1493.0465	171.73965	-71.844902	1503.9354	-178.08618	-111.61211	1154.4899	277.40036	-107.27982	1229.5354	272.29733	-25.113668	1229.8174	251.48151	-152.77017	1158.4529	-290.90131	-148.66548	1234.3279	-292.2933	-67.686707	1246.4158	-285.04385	-8.7309275	1138.063	275.55264	13.039894	1014.9673	291.01672	37.678558	920.19958	299.79373	-34.879601	1120.4718	-302.07416	-16.06926	1032.3319	-313.38144	8.6607475	947.16772	-318.66898	45.554359	865.9541	308.55344	84.451332	828.35504	273.16129	23.339943	819.66571	324.79379	23.285755	885.75635	-321.1315	57.451199	843.95911	-302.68924	0.28843257	838.03418	-340.6312	-109.7002355	88.497942	-163.004405	-88.475803	87.7061235	98.690587	-40.01066422	897.2271259	-95.84926955	-27.71446166	904.2257084	94.11882998	-50.8664075	511.077285	-127.1058045	-32.831832	495.45613	80.957444
1428	14.27	-26.988874	498.43265	13.669316	-38.595966	492.42175	148.15282	59.584152	704.4939	128.30438	48.462475	593.52313	73.012146	14.614702	592.4068	138.97816	-25.018623	501.03946	-62.771103	-76.693893	521.13409	-191.55873	27.382307	720.1076	-181.56497	32.016716	610.39404	-132.5762	-22.19986	605.53564	-191.52258	-67.586456	96.154266	51.231495	-109.36985	79.239761	146.11179	-6.0006614	359.15646	110.78011	-32.721664	243.97975	83.162132	-45.631401	246.60988	145.19374	-82.45079	103.45245	-122.88897	-137.24075	73.548477	-203.1544	-42.602112	344.75909	-182.8624	-53.098297	230.187	-148.11453	-96.150932	246.48991	-206.34421	-158.11089	52.131397	85.07338	60.779427	46.525169	94.888748	18.060837	26.549538	170.03964	-168.0567	56.703484	-152.59502	24.921703	58.187523	-154.1012	-2.9156044	19.645662	-231.09837	-197.86348	995.27246	-15.732152	-14.547964	1026.3103	187.52829	42.352386	994.55804	124.2698	25.173313	984.80225	-141.44534	-48.318859	1020.9996	-212.1003	59.888351	1534.7462	-20.651543	64.455559	1341.0262	-19.876284	-36.973717	1493.0446	171.74515	-71.862709	1503.9584	-178.08704	-111.73104	1154.4919	277.44299	-107.38547	1229.5413	272.3125	-25.191404	1229.8046	251.47212	-152.86743	1158.4812	-290.92636	-148.64836	1234.3657	-292.31204	-67.763878	1246.4424	-285.07751	-8.8353729	1138.0483	275.55737	12.902295	1014.9604	291.01974	37.516048	920.17578	299.7681	-34.973007	1120.49	-302.08755	-16.23126	1032.3158	-313.4021	8.4921961	947.15466	-318.68674	45.381733	865.94403	308.12781	84.244324	828.30145	273.11084	23.167564	819.6366	324.79031	23.073854	885.74457	-321.12622	57.355949	843.9353	-302.55368	0.075763993	838.02063	-340.62817	-109.84577	88.5004635	-163.021685	-88.478153	87.6970135	98.6716425	-40.05059522	897.2699641	-95.91357311	-27.77108286	904.2433522	94.01823204	-50.856258	511.086775	-127.1649165	-32.79242	495.4272	80.911068
1429	14.28	-26.933949	498.40994	13.607209	-38.358311	492.34677	147.67149	59.624176	704.51874	128.2254	48.500744	593.53174	72.951439	14.689487	592.42371	138.91168	-25.020069	501.05042	-62.810696	-76.689644	521.13391	-191.64931	27.359779	720.11871	-181.66443	32.009895	610.4231	-132.60643	-22.191601	605.53772	-191.59743	-67.57605	96.155617	51.234116	-109.35528	79.252167	146.11348	-5.9375772	359.14743	110.76058	-32.690559	244.14386	82.913795	-45.601582	246.59276	145.14987	-82.177155	103.4388	-122.88783	-137.28018	73.540855	-203.15817	-42.592163	344.7554	-182.91031	-53.095127	230.18196	-148.15106	-96.145172	246.47868	-206.38234	-158.03047	52.19809	85.016212	60.791798	46.526218	94.894554	18.060503	26.553751	170.05748	-168.05334	56.707371	-152.60031	24.920706	58.178364	-154.10789	-2.9150798	19.638445	-231.09862	-197.96179	995.23303	-15.801842	-14.644738	1026.2993	187.45233	42.226974	994.56262	124.16583	25.064499	984.80963	-141.51662	-48.403847	1021.016	-212.12114	59.840939	1534.7314	-20.682428	64.443176	1341.0453	-19.8983	-36.979496	1493.041	171.74432	-71.896713	1503.9829	-178.08151	-111.85408	1154.4976	277.49823	-107.50941	1229.5475	272.31985	-25.280867	1229.7885	251.47697	-152.97939	1158.5408	-290.92197	-148.7534	1234.4222	-292.35651	-67.846458	1246.4747	-285.08881	-8.9471645	1138.0389	275.58417	12.745064	1014.96	291.03799	37.348488	920.15302	299.73431	-35.141453	1120.4521	-302.16223	-16.424231	1032.2803	-313.41135	8.3075714	947.13098	-318.68555	45.196163	865.90631	308.09146	84.042755	828.2644	273.0549	22.965963	819.60254	324.78528	22.88232	885.75128	-321.10144	56.979008	843.88239	-302.60794	-0.13729297	838.00385	-340.59448	-109.7286675	88.4898275	-163.023	-88.465665	87.703892	98.673798	-40.13932842	897.2732713	-95.99598272	-27.87156101	904.2447257	93.91430125	-50.8548565	511.092165	-127.230003	-32.64613	495.378355	80.6393495
1430	14.29	-26.817204	498.4119	13.556898	-38.328327	492.30591	147.83026	59.637947	704.55756	128.13754	48.532444	593.57562	72.870628	14.775589	592.42322	138.8362	-25.001589	501.06168	-62.8694	-76.679779	521.12091	-191.71812	27.549015	720.0874	-181.67433	32.025421	610.46198	-132.65662	-22.202009	605.54791	-191.6098	-67.566917	96.144966	51.216911	-109.34701	79.245972	146.07906	-5.90306	359.12598	110.70799	-32.671028	244.11644	82.887245	-45.559349	246.58533	145.10538	-82.18084	103.42798	-122.88382	-137.28665	73.534126	-203.17238	-42.584263	344.73453	-182.93291	-53.092319	230.1781	-148.15504	-96.14164	246.46085	-206.41104	-158.02306	52.235363	84.974113	60.801308	46.514812	94.872597	18.06218	26.570028	170.02841	-168.05612	56.696728	-152.61555	24.922274	58.18631	-154.1059	-2.9045739	19.63233	-231.13385	-198.06929	995.20209	-15.873303	-14.726355	1026.281	187.36089	42.120956	994.59735	124.04256	24.977905	984.83679	-141.54181	-48.475861	1021.0516	-212.17197	59.795151	1534.7458	-20.657349	64.413651	1341.0598	-19.916628	-37.001427	1493.0293	171.74896	-71.927925	1504.006	-178.07352	-111.98808	1154.4987	277.55899	-107.64314	1229.5665	272.35275	-25.388357	1229.781	251.51935	-153.10887	1158.6223	-290.96558	-148.83252	1234.4646	-292.3866	-67.931374	1246.4984	-285.12271	-9.084548	1138.0106	275.59079	12.614888	1014.9501	291.06543	37.184284	920.13171	299.71695	-35.283863	1120.433	-302.18591	-16.594446	1032.2527	-313.42206	8.1325111	947.14221	-318.62115	45.003284	865.86786	308.08182	83.8358	828.18018	272.98193	22.757164	819.57642	324.8028	22.673897	885.73218	-321.04752	56.729206	843.82977	-302.56488	-0.35801753	837.98779	-340.59174	-109.733745	88.481053	-163.0281	-88.4569635	87.695469	98.6479855	-40.2067676	897.3130389	-96.0393056	-27.95253603	904.2901029	93.80626928	-50.840684	511.091295	-127.29376	-32.5727655	495.358905	80.693579
1431	14.3	-26.699635	498.40604	13.509497	-38.161568	492.30713	147.56448	59.693958	704.59937	128.05135	48.619797	593.60339	72.797211	14.85528	592.44928	138.76695	-24.991278	501.06812	-62.937065	-76.666756	521.12189	-191.79193	27.325115	720.15863	-181.80873	32.02792	610.50482	-132.72	-22.192642	605.57227	-191.68942	-67.559341	96.144203	51.203186	-109.32507	79.262573	146.07861	-5.8547449	359.11737	110.67709	-32.628689	244.10509	82.807487	-45.521202	246.5762	145.06369	-82.447632	103.45927	-122.92285	-137.28761	73.528419	-203.17758	-42.572739	344.73355	-182.99365	-53.091442	230.17653	-148.17039	-96.136917	246.45665	-206.43999	-158.03172	52.242844	84.973419	60.797729	46.520142	94.876289	18.071089	26.571146	170.00441	-168.06535	56.697449	-152.6227	24.928562	58.18877	-154.10974	-2.8996222	19.635893	-231.11821	-198.17317	995.19135	-16.042645	-14.819931	1026.2471	187.23297	42.001759	994.63452	123.91988	24.908522	984.85773	-141.64934	-48.570469	1021.1067	-212.25887	59.754421	1534.7281	-20.700808	64.412277	1341.0653	-19.940201	-37.020973	1493.0237	171.77576	-71.962708	1504.0366	-178.06206	-112.10921	1154.5272	277.62241	-107.76921	1229.5968	272.35428	-25.507189	1229.7719	251.56868	-153.25346	1158.6864	-290.99124	-148.96593	1234.5327	-292.43732	-68.033073	1246.5278	-285.13907	-9.2175608	1137.9927	275.62677	12.485683	1014.9188	291.06058	37.006641	920.10077	299.71915	-35.393005	1120.4707	-302.16992	-16.815924	1032.2278	-313.41251	7.9377174	947.15265	-318.57257	44.794456	865.82684	308.36383	83.637039	828.16937	272.96625	22.544716	819.52673	324.75848	22.435604	885.71429	-321.01624	56.455639	843.78033	-302.52148	-0.58054209	837.96637	-340.19705	-109.867621	88.4938445	-163.050215	-88.4422055	87.703388	98.640898	-40.27193812	897.3306181	-96.15681819	-28.05325235	904.3193192	93.67889565	-50.829017	511.095005	-127.3644975	-32.4306015	495.356585	80.5369885
